#!OML:ASF H:\Dans Jumps\Project 1\Capture day 1\Session 1\subject.ASF
:FULLY-SPECIFIED
:DEGREES
215
root 0.179056 13.1709 -17.2274 24.376 -1.14 -0.914309
lowerback 31.7174 0.728946 -0.720798
upperback 13.5768 0.823066 2.49967
thorax -1.9517 0.259718 2.92817
lowerneck -16.3978 0.913998 -0.554646
upperneck 3.6709 1.63073 -3.55292
head 3.74536 0.596932 -0.882007
rclavicle 9.14409e-015 2.20651e-014
rhumerus -30.151 2.18746 -83.9731
rradius 39.449
rwrist 12.8125
rhand -17.2473 -21.6188
rfingers 7.12502
rthumb 8.99667 -51.407
lclavicle 9.14409e-015 2.20651e-014
lhumerus -31.5827 -14.5989 94.8849
lradius 38.9462
lwrist 57.2008
lhand -20.7446 -1.531
lfingers 7.12502
lthumb 5.62097 28.3744
rfemur -87.3838 -3.92874 21.0392
rtibia 90.5077
rfoot -26.1613 -4.86682
rtoes -1.59651
lfemur -86.8863 7.39616 -24.5848
ltibia 89.9332
lfoot -24.4412 10.6297
ltoes -2.25563
216
root 0.179816 13.143 -17.2297 24.3604 -1.15712 -0.906662
lowerback 31.8384 0.736997 -0.745733
upperback 13.5859 0.825402 2.48838
thorax -1.99377 0.260246 2.92971
lowerneck -16.4392 0.904446 -0.557963
upperneck 3.62938 1.61564 -3.52543
head 3.73833 0.591222 -0.874135
rclavicle 5.56597e-015 2.32578e-014
rhumerus -30.1802 2.08991 -83.871
rradius 39.3071
rwrist 13.0959
rhand -17.5994 -21.3817
rfingers 7.12502
rthumb 8.65691 -51.1842
lclavicle 5.56597e-015 2.32578e-014
lhumerus -31.5164 -14.4308 94.7839
lradius 38.5376
lwrist 56.2077
lhand -21.7455 -1.95165
lfingers 7.12502
lthumb 4.65451 27.9772
rfemur -87.5769 -3.93256 21.0361
rtibia 90.7945
rfoot -26.2298 -4.89457
rtoes -1.62714
lfemur -87.0699 7.38716 -24.5995
ltibia 90.2193
lfoot -24.4998 10.7013
ltoes -2.27707
217
root 0.180699 13.1157 -17.2319 24.3408 -1.17556 -0.900935
lowerback 31.9679 0.744944 -0.767471
upperback 13.5941 0.828255 2.47496
thorax -2.04048 0.261262 2.92687
lowerneck -16.4833 0.894881 -0.559049
upperneck 3.58793 1.60033 -3.50026
head 3.73178 0.585274 -0.867351
rclavicle 8.34896e-015 -3.57812e-015
rhumerus -30.2157 2.00019 -83.7717
rradius 39.1858
rwrist 13.3497
rhand -17.9143 -21.1959
rfingers 7.12502
rthumb 8.35308 -51.0108
lclavicle 8.34896e-015 -3.57812e-015
lhumerus -31.4598 -14.2634 94.677
lradius 38.1411
lwrist 55.2264
lhand -22.6989 -2.4389
lfingers 7.12502
lthumb 3.73384 27.5081
rfemur -87.7599 -3.93761 21.0355
rtibia 91.074
rfoot -26.2993 -4.91607
rtoes -1.65032
lfemur -87.2442 7.38051 -24.6124
ltibia 90.4991
lfoot -24.5574 10.7716
ltoes -2.29404
218
root 0.18166 13.0889 -17.2341 24.3222 -1.19184 -0.897152
lowerback 32.1008 0.751802 -0.784896
upperback 13.6004 0.830896 2.46124
thorax -2.0907 0.262412 2.92127
lowerneck -16.5253 0.885459 -0.557739
upperneck 3.54085 1.58494 -3.48037
head 3.72325 0.579132 -0.862597
rclavicle 2.38542e-015 -2.88238e-015
rhumerus -30.2573 1.92009 -83.6749
rradius 39.099
rwrist 13.5417
rhand -18.1575 -21.1008
rfingers 7.12502
rthumb 8.1183 -50.9248
lclavicle 2.38542e-015 -2.88238e-015
lhumerus -31.4104 -14.1018 94.5684
lradius 37.741
lwrist 54.227
lhand -23.6066 -3.01042
lfingers 7.12502
lthumb 2.8573 26.9502
rfemur -87.9399 -3.94623 21.0382
rtibia 91.3479
rfoot -26.3698 -4.92745
rtoes -1.65354
lfemur -87.4167 7.37434 -24.6249
ltibia 90.7728
lfoot -24.6131 10.8407
ltoes -2.31515
219
root 0.182609 13.0627 -17.2363 24.3055 -1.20411 -0.891651
lowerback 32.2402 0.757095 -0.801429
upperback 13.6041 0.831941 2.44794
thorax -2.14639 0.262905 2.91614
lowerneck -16.573 0.87615 -0.557683
upperneck 3.49056 1.57015 -3.46271
head 3.71464 0.573128 -0.858283
rclavicle 7.95139e-015 7.55382e-015
rhumerus -30.3029 1.85685 -83.5802
rradius 39.0372
rwrist 13.6871
rhand -18.3628 -21.0652
rfingers 7.12502
rthumb 7.92019 -50.8968
lclavicle 7.95139e-015 7.55382e-015
lhumerus -31.3645 -13.9435 94.4568
lradius 37.3371
lwrist 53.1748
lhand -24.4786 -3.56392
lfingers 7.12502
lthumb 2.01518 26.4063
rfemur -88.1175 -3.96218 21.0416
rtibia 91.6164
rfoot -26.4428 -4.92538
rtoes -1.62708
lfemur -87.5873 7.36662 -24.6402
ltibia 91.0385
lfoot -24.6672 10.9058
ltoes -2.33932
220
root 0.183411 13.0372 -17.2388 24.2913 -1.2094 -0.885881
lowerback 32.3837 0.76019 -0.814695
upperback 13.6054 0.831362 2.43603
thorax -2.20652 0.26279 2.91122
lowerneck -16.6157 0.866607 -0.560206
upperneck 3.4289 1.55525 -3.44663
head 3.70173 0.567176 -0.854073
rclavicle -7.95139e-016 -1.2921e-014
rhumerus -30.3525 1.80488 -83.4862
rradius 39.0031
rwrist 13.7724
rhand -18.5036 -21.1004
rfingers 7.12502
rthumb 7.78433 -50.9371
lclavicle -7.95139e-016 -1.2921e-014
lhumerus -31.3209 -13.7929 94.3442
lradius 36.929
lwrist 52.0381
lhand -25.3028 -4.0896
lfingers 7.12502
lthumb 1.21915 25.8867
rfemur -88.2928 -3.98482 21.0479
rtibia 91.8782
rfoot -26.5173 -4.91273
rtoes -1.56655
lfemur -87.7571 7.35695 -24.6561
ltibia 91.295
lfoot -24.7192 10.9653
ltoes -2.36763
221
root 0.184085 13.0127 -17.2414 24.279 -1.20918 -0.880276
lowerback 32.5327 0.761939 -0.825039
upperback 13.605 0.830078 2.42549
thorax -2.27077 0.26247 2.90639
lowerneck -16.6596 0.855505 -0.567528
upperneck 3.35761 1.5388 -3.42829
head 3.68594 0.560642 -0.848528
rclavicle 4.37326e-015 -5.66536e-015
rhumerus -30.4045 1.75677 -83.3908
rradius 38.9704
rwrist 13.8616
rhand -18.6318 -21.1378
rfingers 7.12502
rthumb 7.66056 -50.9791
lclavicle 4.37326e-015 -5.66536e-015
lhumerus -31.2822 -13.6535 94.2288
lradius 36.5357
lwrist 50.8181
lhand -26.0974 -4.49413
lfingers 7.12502
lthumb 0.451631 25.4851
rfemur -88.4634 -4.01244 21.0569
rtibia 92.1315
rfoot -26.5921 -4.89183
rtoes -1.47763
lfemur -87.9233 7.34533 -24.6707
ltibia 91.5412
lfoot -24.7699 11.0176
ltoes -2.38849
222
root 0.184617 12.9891 -17.2444 24.2683 -1.20442 -0.87408
lowerback 32.6869 0.763019 -0.832502
upperback 13.6024 0.828869 2.41547
thorax -2.33957 0.262366 2.90046
lowerneck -16.6976 0.842957 -0.578686
upperneck 3.27384 1.52043 -3.40613
head 3.66529 0.553562 -0.84136
rclavicle 5.76476e-015 9.14409e-015
rhumerus -30.4615 1.70794 -83.2947
rradius 38.9388
rwrist 13.9559
rhand -18.7458 -21.1776
rfingers 7.12502
rthumb 7.55051 -51.0228
lclavicle 5.76476e-015 9.14409e-015
lhumerus -31.2483 -13.5316 94.1146
lradius 36.1467
lwrist 49.5309
lhand -26.8502 -4.78031
lfingers 7.12502
lthumb -0.275359 25.1993
rfemur -88.6301 -4.04304 21.067
rtibia 92.3756
rfoot -26.664 -4.86811
rtoes -1.3727
lfemur -88.0866 7.333 -24.6862
ltibia 91.7786
lfoot -24.82 11.0656
ltoes -2.41238
223
root 0.185069 12.966 -17.2476 24.2623 -1.19782 -0.872801
lowerback 33.2576 0.765483 -0.81472
upperback 13.2888 0.822942 2.49826
thorax -2.51929 0.254764 2.77861
lowerneck -16.6109 0.84374 -0.504735
upperneck 2.77459 1.49512 -3.37976
head 3.93154 0.556077 -0.925014
rclavicle 5.1684e-015 6.36111e-015
rhumerus -30.526 1.65352 -83.1966
rradius 38.9061
rwrist 14.0464
rhand -18.8335 -21.2028
rfingers 7.12502
rthumb 7.4659 -51.051
lclavicle 5.1684e-015 6.36111e-015
lhumerus -31.2298 -13.429 94.0039
lradius 35.7725
lwrist 48.2038
lhand -27.5227 -5.04577
lfingers 7.12502
lthumb -0.924975 24.932
rfemur -88.7984 -4.07108 21.0834
rtibia 92.6103
rfoot -26.7291 -4.84742
rtoes -1.27349
lfemur -88.2541 7.3236 -24.6973
ltibia 92.0104
lfoot -24.8681 11.1065
ltoes -2.42863
224
root 0.185614 12.9429 -17.2511 24.2651 -1.2029 -0.879197
lowerback 33.4127 0.772959 -0.816242
upperback 13.276 0.830962 2.48926
thorax -2.58942 0.259064 2.76653
lowerneck -16.6435 0.831243 -0.514194
upperneck 2.67647 1.47628 -3.36167
head 3.90179 0.548685 -0.918286
rclavicle 0 -2.31584e-014
rhumerus -30.5912 1.58689 -83.0963
rradius 38.8637
rwrist 14.1538
rhand -18.9105 -21.2122
rfingers 7.12502
rthumb 7.39154 -51.0631
lclavicle 0 -2.31584e-014
lhumerus -31.2159 -13.3452 93.8957
lradius 35.3993
lwrist 46.8698
lhand -28.0959 -5.28865
lfingers 7.12502
lthumb -1.4785 24.686
rfemur -88.977 -4.08467 21.1038
rtibia 92.8373
rfoot -26.7837 -4.8321
rtoes -1.20319
lfemur -88.4335 7.32805 -24.7078
ltibia 92.2416
lfoot -24.9149 11.144
ltoes -2.4428
225
root 0.186297 12.9196 -17.2547 24.2771 -1.2196 -0.895188
lowerback 33.5613 0.78581 -0.816502
upperback 13.2607 0.845672 2.48007
thorax -2.66 0.266577 2.75149
lowerneck -16.6734 0.820492 -0.521475
upperneck 2.57478 1.45959 -3.34853
head 3.87039 0.542205 -0.913439
rclavicle -1.68967e-014 -3.97569e-016
rhumerus -30.6635 1.51015 -82.994
rradius 38.812
rwrist 14.2686
rhand -18.9856 -21.1947
rfingers 7.12502
rthumb 7.31909 -51.0481
lclavicle -1.68967e-014 -3.97569e-016
lhumerus -31.2119 -13.2746 93.7903
lradius 35.0268
lwrist 45.5654
lhand -28.5604 -5.52887
lfingers 7.12502
lthumb -1.92715 24.4422
rfemur -89.1662 -4.08374 21.1305
rtibia 93.0574
rfoot -26.8291 -4.82165
rtoes -1.16372
lfemur -88.626 7.34563 -24.7143
ltibia 92.4742
lfoot -24.9627 11.1762
ltoes -2.44838
226
root 0.187124 12.8962 -17.2583 24.2977 -1.24882 -0.917123
lowerback 33.7008 0.804348 -0.818912
upperback 13.2458 0.866345 2.46969
thorax -2.72702 0.276824 2.73447
lowerneck -16.702 0.812281 -0.525631
upperneck 2.46726 1.44587 -3.34033
head 3.83681 0.537081 -0.910559
rclavicle 8.15017e-015 6.95746e-015
rhumerus -30.7366 1.42766 -82.8912
rradius 38.7541
rwrist 14.3552
rhand -19.0548 -21.1698
rfingers 7.12502
rthumb 7.25229 -51.0255
lclavicle 8.15017e-015 6.95746e-015
lhumerus -31.2149 -13.224 93.6882
lradius 34.6503
lwrist 44.3262
lhand -28.9125 -5.82125
lfingers 7.12502
lthumb -2.26722 24.1465
rfemur -89.3664 -4.07032 21.1593
rtibia 93.2731
rfoot -26.8671 -4.81242
rtoes -1.15038
lfemur -88.8293 7.37428 -24.7204
ltibia 92.7084
lfoot -25.0119 11.2061
ltoes -2.44291
227
root 0.187968 12.8728 -17.2617 24.3237 -1.28806 -0.940244
lowerback 33.8358 0.82792 -0.827989
upperback 13.2316 0.890963 2.45918
thorax -2.79175 0.28866 2.71956
lowerneck -16.7345 0.806139 -0.529188
upperneck 2.35664 1.43501 -3.33524
head 3.80299 0.533241 -0.90859
rclavicle 9.34288e-015 1.58034e-014
rhumerus -30.8081 1.34497 -82.7869
rradius 38.6767
rwrist 14.448
rhand -19.1603 -21.1147
rfingers 7.12502
rthumb 7.15043 -50.9739
lclavicle 9.34288e-015 1.58034e-014
lhumerus -31.2235 -13.1833 93.5885
lradius 34.2754
lwrist 43.1724
lhand -29.1853 -6.0881
lfingers 7.12502
lthumb -2.53071 23.8766
rfemur -89.5725 -4.04924 21.1864
rtibia 93.4853
rfoot -26.9009 -4.79988
rtoes -1.14221
lfemur -89.0368 7.41026 -24.7286
ltibia 92.9411
lfoot -25.0619 11.235
ltoes -2.43313
